<mxfile host="app.diagrams.net" modified="2022-11-14T20:38:57.055Z" agent="5.0 (Macintosh; Intel Mac OS X 10_15_7) AppleWebKit/537.36 (KHTML, like Gecko) Chrome/106.0.0.0 Safari/537.36" etag="JmFxF_LymglabFy_URLy" version="20.5.3" type="github">
  <diagram id="Tez5qsD9d1kk88AbKUiM" name="Страница 1">
    <mxGraphModel dx="2691" dy="907" grid="1" gridSize="10" guides="1" tooltips="1" connect="1" arrows="1" fold="1" page="1" pageScale="1" pageWidth="827" pageHeight="1169" math="0" shadow="0">
      <root>
        <mxCell id="0" />
        <mxCell id="1" parent="0" />
        <mxCell id="tWPgpHmCEdw0edPjmDw7-9" value="" style="edgeStyle=orthogonalEdgeStyle;rounded=0;orthogonalLoop=1;jettySize=auto;html=1;fontSize=16;" edge="1" parent="1" source="tWPgpHmCEdw0edPjmDw7-1" target="tWPgpHmCEdw0edPjmDw7-8">
          <mxGeometry relative="1" as="geometry" />
        </mxCell>
        <mxCell id="tWPgpHmCEdw0edPjmDw7-16" value="" style="edgeStyle=orthogonalEdgeStyle;rounded=0;orthogonalLoop=1;jettySize=auto;html=1;fontSize=16;" edge="1" parent="1" source="tWPgpHmCEdw0edPjmDw7-1" target="tWPgpHmCEdw0edPjmDw7-15">
          <mxGeometry relative="1" as="geometry">
            <Array as="points">
              <mxPoint x="550" y="260" />
            </Array>
          </mxGeometry>
        </mxCell>
        <mxCell id="tWPgpHmCEdw0edPjmDw7-52" style="edgeStyle=orthogonalEdgeStyle;rounded=0;orthogonalLoop=1;jettySize=auto;html=1;exitX=1;exitY=0.5;exitDx=0;exitDy=0;entryX=0.75;entryY=0;entryDx=0;entryDy=0;fontSize=19;" edge="1" parent="1" source="tWPgpHmCEdw0edPjmDw7-1" target="tWPgpHmCEdw0edPjmDw7-10">
          <mxGeometry relative="1" as="geometry" />
        </mxCell>
        <mxCell id="tWPgpHmCEdw0edPjmDw7-1" value="&lt;font style=&quot;font-size: 22px;&quot;&gt;BACKEND&lt;br&gt;&lt;/font&gt;&lt;font style=&quot;font-size: 16px;&quot;&gt;Node.js Express / MySQL&lt;br&gt;&lt;br&gt;&lt;br&gt;&lt;br&gt;&lt;/font&gt;" style="rounded=0;whiteSpace=wrap;html=1;direction=west;" vertex="1" parent="1">
          <mxGeometry x="180" y="80" width="280" height="360" as="geometry" />
        </mxCell>
        <mxCell id="tWPgpHmCEdw0edPjmDw7-2" value="&lt;font style=&quot;font-size: 16px;&quot;&gt;WebSockets&lt;/font&gt;" style="rounded=0;whiteSpace=wrap;html=1;fontSize=19;" vertex="1" parent="1">
          <mxGeometry x="190" y="270" width="120" height="60" as="geometry" />
        </mxCell>
        <mxCell id="tWPgpHmCEdw0edPjmDw7-3" value="&lt;font style=&quot;font-size: 16px;&quot;&gt;Twillio&lt;/font&gt;" style="rounded=0;whiteSpace=wrap;html=1;fontSize=19;" vertex="1" parent="1">
          <mxGeometry x="330" y="270" width="120" height="60" as="geometry" />
        </mxCell>
        <mxCell id="tWPgpHmCEdw0edPjmDw7-4" value="&lt;font style=&quot;font-size: 16px;&quot;&gt;Near API&lt;/font&gt;" style="rounded=0;whiteSpace=wrap;html=1;fontSize=19;fillColor=#ffe6cc;strokeColor=#d79b00;" vertex="1" parent="1">
          <mxGeometry x="190" y="370" width="120" height="60" as="geometry" />
        </mxCell>
        <mxCell id="tWPgpHmCEdw0edPjmDw7-5" value="&lt;font style=&quot;font-size: 16px;&quot;&gt;REST API&lt;/font&gt;" style="rounded=0;whiteSpace=wrap;html=1;fontSize=19;" vertex="1" parent="1">
          <mxGeometry x="330" y="370" width="120" height="60" as="geometry" />
        </mxCell>
        <mxCell id="tWPgpHmCEdw0edPjmDw7-8" value="&lt;font style=&quot;&quot;&gt;&lt;span style=&quot;font-size: 19px;&quot;&gt;CRM&amp;nbsp;&lt;/span&gt;&lt;br&gt;&lt;font style=&quot;font-size: 16px;&quot;&gt;Vue.js&lt;/font&gt;&lt;br&gt;&lt;/font&gt;" style="rounded=0;whiteSpace=wrap;html=1;" vertex="1" parent="1">
          <mxGeometry x="205" y="490" width="230" height="110" as="geometry" />
        </mxCell>
        <mxCell id="tWPgpHmCEdw0edPjmDw7-10" value="&lt;font style=&quot;&quot;&gt;&lt;span style=&quot;font-size: 19px;&quot;&gt;CDN App&lt;/span&gt;&lt;br&gt;&lt;font style=&quot;font-size: 16px;&quot;&gt;Pure JS or Vue.js&lt;/font&gt;&lt;br&gt;&lt;/font&gt;" style="rounded=0;whiteSpace=wrap;html=1;fontSize=16;" vertex="1" parent="1">
          <mxGeometry x="-90" y="490" width="240" height="110" as="geometry" />
        </mxCell>
        <mxCell id="tWPgpHmCEdw0edPjmDw7-15" value="&lt;font style=&quot;font-size: 19px;&quot;&gt;Local Integration&lt;/font&gt;" style="whiteSpace=wrap;html=1;rounded=0;" vertex="1" parent="1">
          <mxGeometry x="520" y="490" width="240" height="110" as="geometry" />
        </mxCell>
        <mxCell id="tWPgpHmCEdw0edPjmDw7-20" style="edgeStyle=orthogonalEdgeStyle;rounded=0;orthogonalLoop=1;jettySize=auto;html=1;entryX=0.196;entryY=-0.018;entryDx=0;entryDy=0;entryPerimeter=0;fontSize=19;" edge="1" parent="1" source="tWPgpHmCEdw0edPjmDw7-17" target="tWPgpHmCEdw0edPjmDw7-10">
          <mxGeometry relative="1" as="geometry">
            <Array as="points">
              <mxPoint x="680" y="40" />
              <mxPoint x="-43" y="40" />
            </Array>
          </mxGeometry>
        </mxCell>
        <mxCell id="tWPgpHmCEdw0edPjmDw7-22" style="edgeStyle=orthogonalEdgeStyle;rounded=0;orthogonalLoop=1;jettySize=auto;html=1;entryX=0.667;entryY=0.009;entryDx=0;entryDy=0;entryPerimeter=0;fontSize=19;" edge="1" parent="1" source="tWPgpHmCEdw0edPjmDw7-17" target="tWPgpHmCEdw0edPjmDw7-15">
          <mxGeometry relative="1" as="geometry" />
        </mxCell>
        <mxCell id="tWPgpHmCEdw0edPjmDw7-53" style="edgeStyle=orthogonalEdgeStyle;rounded=0;orthogonalLoop=1;jettySize=auto;html=1;exitX=0;exitY=0.5;exitDx=0;exitDy=0;entryX=0.999;entryY=0.606;entryDx=0;entryDy=0;entryPerimeter=0;fontSize=19;" edge="1" parent="1" source="tWPgpHmCEdw0edPjmDw7-17" target="tWPgpHmCEdw0edPjmDw7-8">
          <mxGeometry relative="1" as="geometry" />
        </mxCell>
        <mxCell id="tWPgpHmCEdw0edPjmDw7-17" value="NEAR &lt;br&gt;&lt;font style=&quot;font-size: 19px;&quot;&gt;Smart-Contracts&lt;/font&gt;" style="rounded=0;whiteSpace=wrap;html=1;fontSize=22;" vertex="1" parent="1">
          <mxGeometry x="560" y="80" width="240" height="80" as="geometry" />
        </mxCell>
        <mxCell id="tWPgpHmCEdw0edPjmDw7-57" value="&lt;font style=&quot;font-size: 22px;&quot;&gt;Mysql Schema:&lt;br&gt;&lt;/font&gt;&lt;br&gt;&lt;font style=&quot;&quot;&gt;&lt;font style=&quot;font-size: 18px;&quot;&gt;Projects&lt;br&gt;Categories&lt;br&gt;Employees&lt;br&gt;&lt;/font&gt;&lt;span style=&quot;font-size: 18px;&quot;&gt;Properties&lt;/span&gt;&lt;br&gt;&lt;span style=&quot;font-size: 18px;&quot;&gt;Services&lt;/span&gt;&lt;br&gt;&lt;br&gt;&lt;span style=&quot;font-size: 18px;&quot;&gt;Users&lt;/span&gt;&lt;br&gt;&lt;span style=&quot;font-size: 18px;&quot;&gt;Connections&lt;/span&gt;&lt;br&gt;&lt;span style=&quot;font-size: 18px;&quot;&gt;Calls&lt;/span&gt;&lt;br&gt;&lt;span style=&quot;font-size: 18px;&quot;&gt;Messages&lt;/span&gt;&lt;br&gt;&lt;span style=&quot;font-size: 18px;&quot;&gt;Conferences&lt;/span&gt;&lt;br&gt;&lt;br&gt;&lt;span style=&quot;font-size: 18px;&quot;&gt;Payments&lt;br&gt;&lt;/span&gt;&lt;span style=&quot;color: rgb(32, 33, 36); font-family: inherit; background-color: initial;&quot;&gt;&lt;font style=&quot;font-size: 18px;&quot;&gt;Purchases&lt;/font&gt;&lt;/span&gt;&lt;span style=&quot;font-size: 18px;&quot;&gt;&lt;br&gt;&lt;/span&gt;&lt;/font&gt;" style="rounded=0;whiteSpace=wrap;html=1;fontSize=19;align=center;" vertex="1" parent="1">
          <mxGeometry x="-460" y="40" width="230" height="560" as="geometry" />
        </mxCell>
      </root>
    </mxGraphModel>
  </diagram>
</mxfile>
